<?xml version="1.0" encoding="utf-8"?>
<!-- Generator: Adobe Illustrator 18.0.0, SVG Export Plug-In . SVG Version: 6.00 Build 0)  -->
<!DOCTYPE svg PUBLIC "-//W3C//DTD SVG 1.1//EN" "http://www.w3.org/Graphics/SVG/1.1/DTD/svg11.dtd">
<svg version="1.1" id="_x31_0" xmlns="http://www.w3.org/2000/svg" xmlns:xlink="http://www.w3.org/1999/xlink" x="0px" y="0px"
	 viewBox="0 0 233.7 200" enable-background="new 0 0 233.7 200" xml:space="preserve">
<g>
	<polygon fill="#7F0000" points="114.2,117.9 114.1,118.2 114.1,118.2 114.1,118.2 174.4,116.1 223.1,114.3 231.5,107.3 
		114.1,109.6 	"/>
	<path fill="#7F0000" d="M209.1,81.1l-0.5,0l0,0l-0.1,0l0,3.9c0,0.4-0.4,0.8-0.8,0.8h-3.8c-0.4,0-0.8-0.4-0.8-0.8l0-4.1l-7.1-0.3
		c-0.2,0.5-0.4,0.9-0.6,1.3c0,0.1-0.1,0.2-0.1,0.3c-1.7,3.3-4.5,5.5-7.7,5.5c-3.8,0-7.2-3.2-8.6-7.7l-4.3-0.1l-0.1,0l0,0l-0.1,0l0,1
		c0,2-1.2,3.9-2.6,4.4l-4.4,1.3c-1.7,0.5-3.2-0.9-3.2-3.2l0-3.9l-10.9-0.4l-0.4,0v0l-0.1,0l0,1.1c0,2.4-1.3,5-3,5.9l-6.1,3
		c-3.1,1.5-6.1-0.3-6.1-4.2l0-6.3L115,77.7l-0.8,0l0,0l-0.1,0v25.5v0.3l0,0l0,0.1l119.5-1.1l-10.6-20.8L209.1,81.1z"/>
	<path fill="#7F0000" d="M105.7,72.7c0-11-8.7-20-19.6-20.5l-64.8-2.8C9.6,48.8-0.1,58.1-0.1,69.8l0,62.9c0,11.7,9.8,21,21.4,20.5
		l64.8-2.8c11-0.5,19.6-9.5,19.6-20.5l0-20.2l0-6.1L105.7,72.7z M37.5,131.8L37.5,131.8c-12.2,0.5-22.3-9.2-22.3-21.4l0-18.2
		c0-12.2,10.2-21.9,22.3-21.3c5.6,0.2,10,4.9,10,10.5l0,40C47.6,126.9,43.2,131.5,37.5,131.8z"/>
</g>
</svg>
